<svg width="120" height="24" viewBox="0 0 120 24" fill="none" xmlns="http://www.w3.org/2000/svg">
<g id="5R920JkHT7bXg6LBdCkxZhwoj50.svg">
<path id="Vector" fill-rule="evenodd" clip-rule="evenodd" d="M34.3501 17.4827V3.02747H42.0515V4.84149H36.2069V8.78518H40.6956V10.6063H36.214V17.4912L34.3501 17.4827ZM46.2545 5.61028C46.1413 5.72349 46.0069 5.8133 45.859 5.87457C45.7111 5.93585 45.5525 5.96738 45.3924 5.96738C45.2323 5.96738 45.0738 5.93585 44.9258 5.87457C44.7779 5.8133 44.6435 5.72349 44.5303 5.61028C44.4171 5.49706 44.3273 5.36266 44.266 5.21473C44.2047 5.06681 44.1732 4.90826 44.1732 4.74815C44.1732 4.58804 44.2047 4.4295 44.266 4.28157C44.3273 4.13365 44.4171 3.99924 44.5303 3.88603C44.7589 3.65738 45.0691 3.52892 45.3924 3.52892C45.7158 3.52892 46.0259 3.65738 46.2545 3.88603C46.4832 4.11468 46.6117 4.42479 46.6117 4.74815C46.6117 5.07151 46.4832 5.38163 46.2545 5.61028ZM44.4533 17.4912V7.78127H46.3172V17.4912H44.4533ZM49.0205 12.0705C49.0205 9.58888 50.7419 7.50268 53.2085 7.50268V7.5098C54.3414 7.5098 55.2734 7.94015 55.9545 8.65693V7.78839H57.8191V16.773C57.8204 17.415 57.6921 18.0506 57.4419 18.6418C57.1917 19.233 56.8246 19.7676 56.3629 20.2135C55.9011 20.6595 55.354 21.0076 54.7545 21.2371C54.1549 21.4665 53.5152 21.5726 52.8737 21.5489C52.016 21.5171 51.1827 21.2545 50.4619 20.7887L51.3938 19.1756C51.8605 19.5055 52.4483 19.7349 53.0432 19.7349C53.6243 19.7338 54.1917 19.5592 54.6729 19.2335C55.154 18.9077 55.5269 18.4457 55.7436 17.9066C55.8875 17.5489 55.9595 17.1656 55.9545 16.7809V15.4891C55.2734 16.2059 54.3414 16.6362 53.2085 16.6362C50.7419 16.6362 49.0212 14.55 49.0212 12.0691L49.0205 12.0705ZM53.4166 9.3167C52.0536 9.3167 50.878 10.528 50.878 12.0698C50.878 13.6117 52.0536 14.8165 53.4166 14.8165C54.7711 14.8165 55.9474 13.6124 55.9474 12.0698C55.9474 10.5358 54.7789 9.3167 53.4166 9.3167ZM64.5159 9.3167C63.9827 9.32606 63.4746 9.54495 63.1015 9.92603C62.7285 10.3071 62.5204 10.8197 62.5223 11.353V17.4912H60.6584V7.78127H62.5223V8.67047C62.8013 8.30072 63.1637 8.00215 63.58 7.79908C63.9963 7.59601 64.4547 7.49421 64.9178 7.50197C66.2224 7.50197 67.2263 8.14678 67.7998 9.13644C68.12 8.6404 68.5581 8.23147 69.0749 7.94623C69.5918 7.66099 70.1714 7.50835 70.7617 7.50197C72.8764 7.50197 74.2031 9.2084 74.2031 11.3238V17.4905H72.3534V11.3452C72.355 10.812 72.1468 10.2996 71.7738 9.9186C71.4008 9.5376 70.8929 9.31859 70.3598 9.30887C69.8266 9.31823 69.3185 9.53712 68.9455 9.91819C68.5724 10.2993 68.3643 10.8119 68.3663 11.3452V17.4834H66.5024V11.3452C66.5045 10.8131 66.2975 10.3014 65.9259 9.92045C65.5543 9.53954 65.0479 9.31989 64.5159 9.30887V9.3167ZM84.1125 8.87852L84.1204 8.88635H84.1125V8.87923V8.87852ZM82.6241 7.85679C83.1842 8.09322 83.6906 8.44081 84.1125 8.87852V7.78127H85.9771V17.4912H84.1204V16.3868C83.6961 16.8272 83.1868 17.1769 82.6235 17.4147C82.0601 17.6525 81.4543 17.7736 80.8429 17.7705C78.0755 17.7705 76.1104 15.4335 76.1104 12.6362C76.1104 9.84039 78.0755 7.50268 80.8429 7.50268C81.4545 7.4983 82.0606 7.61879 82.6241 7.85679ZM81.0438 9.3167C79.3872 9.3167 77.9679 10.7866 77.9679 12.637C77.9679 14.4866 79.3943 15.9494 81.0438 15.9494C82.7003 15.9494 84.1204 14.4866 84.1204 12.6362C84.1204 10.7866 82.6932 9.3167 81.0438 9.3167Z" fill="url(#paint0_linear_56_1670)"/>
</g>
<defs>
<linearGradient id="paint0_linear_56_1670" x1="60.164" y1="3.02747" x2="60.164" y2="21.5525" gradientUnits="userSpaceOnUse">
<stop stop-color="white" stop-opacity="0.8"/>
<stop offset="1" stop-color="white" stop-opacity="0.4"/>
</linearGradient>
</defs>
</svg>
