<svg width="120" height="24" viewBox="0 0 120 24" fill="none" xmlns="http://www.w3.org/2000/svg">
<g id="ghIQqGxJPY3EjCDqT0H96qV6A.svg">
<path id="Vector" fill-rule="evenodd" clip-rule="evenodd" d="M25.3426 6.0613C25.2959 6.11336 25.271 6.18141 25.2731 6.25132C25.2753 6.32124 25.3042 6.38765 25.354 6.43678L38.065 19.1485C38.1142 19.1985 38.1807 19.2276 38.2508 19.2297C38.3209 19.2318 38.3891 19.2068 38.4412 19.1599C39.398 18.2918 40.1623 17.2328 40.6848 16.0513C41.2073 14.8698 41.4765 13.5919 41.475 12.2999C41.475 7.17921 37.3233 3.02747 32.2026 3.02747C30.9106 3.02597 29.6327 3.29515 28.4512 3.81769C27.2697 4.34022 26.2107 5.10451 25.3426 6.0613ZM23.7537 8.47382C23.731 8.52452 23.7242 8.58094 23.7344 8.63556C23.7446 8.69019 23.7712 8.7404 23.8107 8.77948L35.7237 20.6925C35.7628 20.7318 35.8128 20.7584 35.8673 20.7685C35.9218 20.7787 35.9781 20.7721 36.0287 20.7495C36.3037 20.6241 36.5716 20.4859 36.8317 20.3362C36.8674 20.3151 36.8977 20.2861 36.9204 20.2514C36.9431 20.2166 36.9576 20.1772 36.9626 20.136C36.9676 20.0948 36.9631 20.0531 36.9494 20.0139C36.9357 19.9747 36.9132 19.9392 36.8837 19.9102L24.5931 7.61882C24.564 7.58911 24.5284 7.5665 24.4892 7.55273C24.45 7.53897 24.4081 7.53443 24.3668 7.53945C24.3255 7.54449 24.286 7.55895 24.2512 7.58174C24.2164 7.60452 24.1874 7.63501 24.1663 7.67083C24.0166 7.9309 23.8791 8.19808 23.7537 8.47382ZM23.0305 11.8846C23.003 11.8571 22.9817 11.8241 22.9679 11.7877C22.9541 11.7513 22.9483 11.7125 22.9507 11.6737C22.975 11.3046 23.022 10.9419 23.0875 10.5864C23.0969 10.5385 23.1193 10.4941 23.1521 10.458C23.185 10.422 23.2272 10.3956 23.274 10.3819C23.3208 10.3681 23.3705 10.3675 23.4177 10.3801C23.4648 10.3926 23.5076 10.4179 23.5414 10.4531L34.0493 20.9611C34.0846 20.9949 34.1098 21.0377 34.1224 21.0848C34.135 21.132 34.1344 21.1817 34.1206 21.2285C34.1069 21.2753 34.0805 21.3175 34.0445 21.3504C34.0084 21.3832 33.964 21.4056 33.9161 21.415C33.5599 21.4812 33.1979 21.5275 32.8288 21.5518C32.7899 21.5543 32.7509 21.5485 32.7144 21.5347C32.6779 21.521 32.6448 21.4996 32.6172 21.472L23.0312 11.8838L23.0305 11.8846ZM23.6761 14.4724C23.4837 14.2814 23.1752 14.446 23.245 14.7075C23.6685 16.2767 24.4962 17.7074 25.6456 18.8567C26.795 20.0059 28.2257 20.8335 29.795 21.2568C30.0565 21.3273 30.2218 21.0181 30.0301 20.8264L23.6761 14.4724ZM60.3071 8.1304C60.9719 8.1304 61.5112 7.5889 61.5112 6.92271C61.5112 6.2551 60.9719 5.71431 60.3071 5.71431C59.6431 5.71431 59.1044 6.25581 59.1044 6.92271C59.1044 7.58961 59.6431 8.1304 60.3071 8.1304ZM50.0001 18.6633V5.71573H52.1383V16.7702H57.9046V18.6647H50.0001V18.6633ZM65.2212 13.3801V18.6633H63.1521V9.48628H65.1949V11.0595L65.2212 11.0424C65.4333 10.5447 65.7815 10.1169 66.2258 9.80833C66.6868 9.47203 67.2761 9.3046 67.9914 9.3046C68.627 9.3046 69.2041 9.44638 69.7228 9.72996C70.2429 10.0078 70.6583 10.4168 70.9697 10.9555C71.2818 11.4941 71.4378 12.1546 71.4378 12.9362V18.6633H69.368V13.2233C69.368 12.5287 69.1834 12.0014 68.8144 11.6416C68.451 11.2768 67.9629 11.0944 67.3509 11.0944C66.9788 11.0898 66.6108 11.1733 66.2771 11.3381C65.9507 11.5036 65.6822 11.7642 65.5069 12.0855C65.316 12.4211 65.2212 12.8528 65.2212 13.3801ZM83.9578 18.5072C84.4309 18.7103 84.9739 18.8115 85.5852 18.8115C86.0875 18.8115 86.5171 18.7474 86.8755 18.6205C87.2332 18.4866 87.5275 18.3099 87.7583 18.0897C87.9949 17.8696 88.183 17.6294 88.3212 17.3687H88.3561V18.6633H90.339V12.3455C90.339 11.8995 90.2521 11.4913 90.0789 11.12C89.9034 10.7463 89.646 10.4168 89.3258 10.156C89.0023 9.88386 88.6097 9.6751 88.148 9.53046C87.6863 9.37941 87.1669 9.3046 86.5898 9.3046C85.7989 9.3046 85.1149 9.43997 84.5378 9.71286C83.9664 9.97933 83.5189 10.3384 83.1955 10.7902C82.8743 11.2378 82.6908 11.7694 82.6675 12.3199H84.6675C84.6903 12.0534 84.7829 11.8154 84.9447 11.6074C85.1064 11.3986 85.3258 11.2369 85.603 11.1208C85.8794 10.9989 86.2001 10.9384 86.5634 10.9384C86.9275 10.9384 87.2361 10.9989 87.4904 11.1208C87.7498 11.2419 87.9493 11.4072 88.0875 11.6159C88.2264 11.8247 88.2955 12.0677 88.2955 12.3455V12.4154C88.2955 12.6241 88.2229 12.7773 88.0789 12.8764C87.94 12.9747 87.7035 13.0474 87.3693 13.093C86.9198 13.1542 86.4694 13.2093 86.0184 13.2583C85.551 13.3103 85.1007 13.3886 84.6675 13.4934C84.2599 13.5876 83.8688 13.7427 83.5075 13.9537C83.1778 14.1511 82.9037 14.4291 82.711 14.7616C82.5143 15.0979 82.4167 15.5297 82.4167 16.0562C82.4167 16.6647 82.5549 17.1749 82.8321 17.586C83.1092 17.9921 83.484 18.2985 83.9578 18.5072ZM87.3087 16.969C86.9739 17.1485 86.5606 17.2383 86.0704 17.2383C85.5738 17.2383 85.1784 17.1343 84.8841 16.9255C84.5898 16.7117 84.4423 16.4189 84.4423 16.0477C84.4423 15.7584 84.5236 15.5233 84.6846 15.3437C84.8686 15.1535 85.0939 15.008 85.3429 14.9184C85.6274 14.8108 85.9238 14.7379 86.2257 14.7011C86.4566 14.6662 86.6817 14.6312 86.9012 14.5963L87.5161 14.4838C87.7063 14.4431 87.868 14.4025 88.0013 14.3626C88.1085 14.3353 88.2108 14.2911 88.3041 14.2315V15.2575C88.3041 15.6166 88.22 15.9465 88.0526 16.2479C87.8915 16.5436 87.6429 16.7837 87.3087 16.969ZM92.1437 18.6633V9.48628H94.1352V10.9989H94.1616C94.329 10.4774 94.5912 10.0805 94.9496 9.80833C95.313 9.53046 95.7889 9.39152 96.3781 9.39152C96.5221 9.39152 96.6525 9.39722 96.7672 9.40862C96.889 9.41432 96.9895 9.42002 97.0707 9.42572V11.2946C96.7378 11.2489 96.4021 11.2256 96.0661 11.2248C95.7255 11.2248 95.4141 11.3032 95.1313 11.4599C94.8484 11.6159 94.6232 11.8561 94.4558 12.181C94.2941 12.4994 94.2136 12.902 94.2136 13.3886V18.6633H92.1437ZM59.269 18.6633V9.48628H61.3374V18.6633H59.269ZM74.8792 18.255C75.5432 18.6668 76.3312 18.872 77.2432 18.872C77.9472 18.872 78.5877 18.7445 79.1649 18.4894C79.7238 18.2467 80.221 17.8815 80.6198 17.4207C81.0042 16.9679 81.2638 16.4227 81.3729 15.8389H79.4249C79.338 16.1118 79.1969 16.3519 79.0003 16.5607C78.7989 16.7707 78.5537 16.9337 78.2821 17.0381C77.9935 17.1542 77.6586 17.2126 77.2774 17.2126C76.7637 17.2126 76.3227 17.0965 75.9529 16.8649C75.5878 16.6313 75.299 16.2959 75.1221 15.9002C74.949 15.5219 74.8542 15.0929 74.8385 14.6141H81.494V14.0584C81.494 13.3509 81.39 12.7082 81.1827 12.1289C80.991 11.5713 80.6907 11.0572 80.2991 10.6163C79.9194 10.1882 79.4492 9.84995 78.9226 9.62593C78.3918 9.39437 77.8004 9.27823 77.1478 9.27823C76.2992 9.27823 75.5489 9.48415 74.897 9.89526C74.2443 10.3064 73.7335 10.8742 73.3644 11.5981C72.9946 12.3227 72.8101 13.1514 72.8101 14.084C72.8101 15.0103 72.9889 15.8368 73.3466 16.5607C73.6869 17.259 74.2184 17.8465 74.8792 18.255ZM79.2347 12.181C79.0587 11.8036 78.7754 11.4864 78.4203 11.269C78.0683 11.0538 77.6529 10.9469 77.1734 10.9469C76.7003 10.9469 76.2878 11.0538 75.9358 11.2682C75.5837 11.4891 75.3016 11.8054 75.1221 12.1802C74.9762 12.4865 74.8862 12.8163 74.8564 13.1542H79.4997C79.4698 12.8167 79.3801 12.4871 79.2347 12.181Z" fill="url(#paint0_linear_56_1578)"/>
</g>
<defs>
<linearGradient id="paint0_linear_56_1578" x1="60.01" y1="3.02747" x2="60.01" y2="21.5525" gradientUnits="userSpaceOnUse">
<stop stop-color="white" stop-opacity="0.8"/>
<stop offset="1" stop-color="white" stop-opacity="0.4"/>
</linearGradient>
</defs>
</svg>
