<svg width="120" height="24" viewBox="0 0 120 24" fill="none" xmlns="http://www.w3.org/2000/svg">
<g id="tBYAMER5VEomdLFGw04IA1WhXk.svg">
<path id="Vector" fill-rule="evenodd" clip-rule="evenodd" d="M36.6949 11.9082C36.6947 12.2699 36.7657 12.6282 36.904 12.9625C37.0422 13.2967 37.2449 13.6005 37.5006 13.8564C37.7562 14.1124 38.0597 14.3155 38.3938 14.4541C38.7279 14.5927 39.0861 14.6642 39.4478 14.6644C39.8096 14.6646 40.1678 14.5936 40.5021 14.4553C40.8363 14.3171 41.1401 14.1144 41.3961 13.8588C41.652 13.6031 41.8551 13.2996 41.9937 12.9655C42.1323 12.6314 42.2038 12.2732 42.204 11.9115C42.2043 11.1809 41.9144 10.4802 41.398 9.96341C40.8816 9.44663 40.1811 9.15614 39.4506 9.15585C38.72 9.15556 38.0193 9.44549 37.5025 9.96186C36.9857 10.4782 36.6952 11.1788 36.6949 11.9093V11.9082ZM43.2338 10.8937H49.14V12.9238H43.2338L48.3502 15.8769L47.3346 17.6311L42.1135 14.6115L45.1189 19.8326L43.4716 20.7817L40.4662 15.5748V21.5988H38.436V15.6937L35.4829 20.8089L33.7287 19.7944L36.6818 14.678L31.5666 17.6322L30.552 15.878L35.6673 12.9249H29.76V10.8958H35.6662L30.5509 7.94167L31.5655 6.18858L36.6818 9.14167L33.7276 4.02639L35.4818 3.01185L38.4349 8.12712V2.21985H40.464V8.12603L43.4182 3.00967L45.1713 4.0253L42.2182 9.14167L47.3335 6.18748L48.348 7.94058L43.2338 10.8937ZM53.2669 5.34421V18.4089H55.6669V5.34421H53.2669ZM78.552 9.52239H76.284V18.4089H78.684V13.214C78.684 12.2388 79.3036 11.4609 80.3444 11.4609C81.4255 11.4609 81.9131 12.1864 81.9131 13.1355V18.4089H84.2869V13.214C84.2869 12.2518 84.8924 11.4609 85.9211 11.4609C87.0153 11.4609 87.4898 12.1864 87.4898 13.1355V18.4089H89.8102V12.6478C89.8102 10.2609 88.2415 9.27258 86.6073 9.27258C85.4335 9.27258 84.4844 9.66858 83.7851 10.7497C83.3378 9.80058 82.3615 9.27258 81.1495 9.27258C80.1731 9.27258 79.0396 9.73403 78.552 10.6035V9.52348V9.52239ZM56.4306 13.9788C56.4306 16.6689 58.3811 18.6718 61.0844 18.6718C63.7866 18.6718 65.7382 16.6428 65.7382 13.9788C65.7382 11.342 63.8127 9.27258 61.0844 9.27258C58.3822 9.27258 56.4306 11.3289 56.4306 13.9788ZM58.5535 13.9788C58.5535 13.3075 58.8201 12.6638 59.2948 12.1891C59.7694 11.7145 60.4131 11.4478 61.0844 11.4478C61.7556 11.4478 62.3994 11.7145 62.874 12.1891C63.3486 12.6638 63.6153 13.3075 63.6153 13.9788C63.6127 14.6492 63.3452 15.2914 62.8711 15.7655C62.3971 16.2396 61.7548 16.5071 61.0844 16.5097C60.4131 16.5097 59.7694 16.243 59.2948 15.7684C58.8201 15.2937 58.5535 14.65 58.5535 13.9788ZM66.2116 13.9788C66.2116 16.6689 68.1644 18.6718 70.8666 18.6718C73.5556 18.6718 75.5193 16.6428 75.5193 13.9788C75.5193 11.342 73.5949 9.27258 70.8666 9.27258C68.1633 9.27258 66.2116 11.3289 66.2116 13.9788ZM68.3084 13.9657C68.3092 13.2876 68.5791 12.6375 69.0587 12.1581C69.5383 11.6787 70.1884 11.4092 70.8666 11.4086C71.5439 11.4114 72.1926 11.6818 72.6715 12.1607C73.1504 12.6396 73.4208 13.2884 73.4236 13.9657C73.4231 14.6438 73.1535 15.294 72.6741 15.7736C72.1947 16.2531 71.5447 16.523 70.8666 16.5238C70.1883 16.5233 69.5379 16.2536 69.0583 15.7739C68.5787 15.2943 68.309 14.644 68.3084 13.9657Z" fill="url(#paint0_linear_56_1554)"/>
</g>
<defs>
<linearGradient id="paint0_linear_56_1554" x1="59.7851" y1="2.21985" x2="59.7851" y2="21.5988" gradientUnits="userSpaceOnUse">
<stop stop-color="white" stop-opacity="0.8"/>
<stop offset="1" stop-color="white" stop-opacity="0.4"/>
</linearGradient>
</defs>
</svg>
