<svg width="120" height="24" viewBox="0 0 120 24" fill="none" xmlns="http://www.w3.org/2000/svg">
<g id="FRQO4RE6u4Pv4s1BKHGujlPpiD0.svg">
<path id="Vector" d="M39.2763 9.83049V14.8529H40.5253C40.8442 14.8481 41.1588 14.7791 41.4505 14.6503C41.7422 14.5214 42.005 14.3351 42.2232 14.1026C42.6721 13.6267 42.9172 12.9926 42.9072 12.3371C42.9262 11.6799 42.6835 11.042 42.2325 10.5637C42.0131 10.3313 41.7484 10.1464 41.4548 10.0202C41.1612 9.89395 40.8449 9.82916 40.5253 9.82978H39.277L39.2763 9.83049ZM40.5253 8.25587C42.8517 8.25587 44.6122 10.0642 44.6122 12.3371C44.6122 14.6107 42.8524 16.4297 40.5253 16.4297H37.7715C37.7452 16.4293 37.7193 16.4237 37.6951 16.4133C37.671 16.4029 37.6491 16.3879 37.6308 16.369C37.6125 16.3502 37.598 16.3279 37.5883 16.3034C37.5786 16.279 37.5738 16.2529 37.5742 16.2266V8.46748C37.5742 8.35419 37.6625 8.26299 37.7715 8.26299L40.5253 8.25587ZM50.6101 15.0275C51.6667 15.031 52.6214 14.3791 53.0283 13.3759C53.2276 12.8856 53.2809 12.3482 53.1816 11.8283C53.0824 11.3085 52.8349 10.8284 52.469 10.4461C52.1101 10.0713 51.6458 9.81432 51.1376 9.70922C50.6295 9.60413 50.1014 9.65586 49.6232 9.85757C48.6471 10.2715 48.0087 11.2505 48.0066 12.3371C48.0066 13.8191 49.1701 15.0203 50.6101 15.0275ZM50.6101 8.07062C53.0596 8.07062 54.9321 10.0065 54.9321 12.3371C54.9321 14.6684 53.0596 16.6049 50.6101 16.6049C48.1605 16.6049 46.3044 14.6776 46.3044 12.3371C46.3044 9.99722 48.1769 8.07062 50.6101 8.07062ZM60.8815 15.0275C62.3221 15.0239 63.4878 13.8205 63.4864 12.3392C63.4849 10.8565 62.3164 9.65593 60.8765 9.65522C59.4351 9.65522 58.2666 10.8551 58.2645 12.3371C58.2627 13.047 58.5377 13.7297 59.0311 14.2402C59.2712 14.4885 59.5587 14.6861 59.8765 14.8213C60.1943 14.9566 60.5361 15.0267 60.8815 15.0275ZM60.8815 8.07062C63.3225 8.07062 65.1949 9.99722 65.1949 12.3371C65.1949 14.6776 63.3147 16.6049 60.8807 16.6049C58.4476 16.6049 56.5594 14.6776 56.5594 12.3371C56.5594 9.99722 58.4326 8.07062 60.8815 8.07062ZM70.9056 9.83049H69.145V11.9922H70.9056C71.0448 11.9984 71.1837 11.9759 71.3138 11.926C71.4439 11.8761 71.5623 11.7999 71.6616 11.7022C71.8654 11.5049 71.9815 11.2298 71.9836 10.9413C71.9888 10.7949 71.9644 10.649 71.9118 10.5122C71.8593 10.3755 71.7798 10.2507 71.678 10.1454C71.5783 10.042 71.4581 9.9607 71.3251 9.9067C71.192 9.8527 71.0491 9.82722 70.9056 9.83192V9.83049ZM67.4422 8.46677C67.4422 8.35419 67.5312 8.26299 67.6402 8.26299H70.9541C72.5344 8.26299 73.678 9.45429 73.678 10.9491C73.6901 11.9609 73.1393 12.8907 72.2601 13.3431L73.7884 16.1226C73.8097 16.1545 73.8217 16.1918 73.8231 16.2301C73.8245 16.2685 73.8152 16.3065 73.7962 16.3399C73.778 16.3729 73.7506 16.3999 73.7174 16.4176C73.6841 16.4353 73.6464 16.443 73.6088 16.4396H72.2679C72.2307 16.4403 72.194 16.4304 72.1622 16.4109C72.1304 16.3915 72.1048 16.3634 72.0884 16.3299L70.6149 13.579H69.1386V16.2202C69.1394 16.2734 69.119 16.3247 69.0821 16.3629C69.0451 16.4011 68.9944 16.423 68.9413 16.424H67.6488C67.5956 16.423 67.545 16.4011 67.508 16.3629C67.471 16.3247 67.4507 16.2734 67.4514 16.2202L67.4429 8.46748L67.4422 8.46677ZM78.1168 9.86826V14.8914H79.3644C79.6831 14.8871 79.9977 14.8188 80.2896 14.6905C80.5813 14.5622 80.8444 14.3766 81.063 14.1447C81.5119 13.6687 81.7577 13.0353 81.7485 12.3798C81.7683 11.722 81.5264 11.0832 81.0759 10.6036C80.856 10.3708 80.5907 10.1856 80.2965 10.0594C80.0023 9.93319 79.6853 9.86862 79.3651 9.86968L78.1168 9.86826ZM79.3644 8.29221C81.6915 8.29221 83.4513 10.102 83.4513 12.3798C83.4513 14.6577 81.6915 16.4681 79.3644 16.4681H76.6192C76.5928 16.468 76.5667 16.4626 76.5425 16.4522C76.5182 16.4418 76.4963 16.4266 76.4781 16.4076C76.4412 16.3694 76.4209 16.3182 76.4218 16.2651V8.50596C76.4218 8.39267 76.5101 8.30147 76.6192 8.30147L79.3644 8.29221ZM88.644 10.2893L87.6779 12.9755H89.608L88.644 10.2893ZM87.1114 14.4931L86.4795 16.2815C86.4665 16.3233 86.4402 16.3597 86.4045 16.385C86.3688 16.4104 86.3258 16.4233 86.2821 16.4218H84.9105C84.8756 16.425 84.8404 16.4188 84.8087 16.4037C84.777 16.3887 84.7499 16.3654 84.7303 16.3363C84.7101 16.3068 84.6979 16.2726 84.6949 16.2371C84.6919 16.2015 84.6982 16.1657 84.7132 16.1333L87.6765 8.38127C87.6901 8.3404 87.7169 8.30515 87.7525 8.28095C87.7882 8.25675 87.8308 8.24493 87.8738 8.24732H89.4078C89.451 8.24477 89.4938 8.25652 89.5296 8.28073C89.5654 8.30494 89.5922 8.34028 89.6059 8.38127L92.5692 16.1333C92.5834 16.1653 92.5899 16.2017 92.5863 16.2373C92.5834 16.2728 92.5714 16.3069 92.5514 16.3363C92.5316 16.3652 92.5045 16.3883 92.4728 16.4032C92.4411 16.4181 92.406 16.4243 92.3711 16.4211H91.0003C90.9564 16.4232 90.9131 16.4105 90.8773 16.3851C90.8415 16.3596 90.8153 16.3229 90.8029 16.2808L90.1709 14.4924L87.1114 14.4931ZM94.1588 10.4639C94.1588 9.17998 95.2368 8.06991 96.9397 8.06991C97.8574 8.04951 98.7457 8.39388 99.4099 9.0275C99.4302 9.0468 99.4463 9.07002 99.4573 9.09574C99.4683 9.12146 99.474 9.14915 99.474 9.17713C99.474 9.20511 99.4683 9.2328 99.4573 9.25852C99.4463 9.28424 99.4302 9.30746 99.4099 9.32676L98.6504 10.102C98.6322 10.1208 98.6105 10.1357 98.5864 10.1459C98.5624 10.1562 98.5365 10.1614 98.5104 10.1614C98.4842 10.1614 98.4584 10.1562 98.4343 10.1459C98.4103 10.1357 98.3885 10.1208 98.3704 10.102C98.0132 9.76589 97.5433 9.57532 97.0529 9.56758C96.3718 9.56758 95.8681 9.97442 95.8681 10.444C95.8681 11.9616 99.8937 11.0852 99.8937 14.005C99.8915 15.4849 98.805 16.6042 96.8834 16.6042C96.3494 16.61 95.8198 16.5079 95.3263 16.304C94.8328 16.1002 94.3855 15.7988 94.0113 15.4179C93.9909 15.3987 93.9747 15.3755 93.9636 15.3498C93.9526 15.324 93.947 15.2963 93.9472 15.2683C93.947 15.2403 93.9526 15.2125 93.9636 15.1868C93.9747 15.1611 93.9909 15.1379 94.0113 15.1187L94.7459 14.3634C94.7642 14.3438 94.7864 14.3281 94.811 14.3174C94.8356 14.3067 94.8622 14.3012 94.8891 14.3012C94.9159 14.3012 94.9425 14.3067 94.9672 14.3174C94.9918 14.3281 95.014 14.3438 95.0323 14.3634C95.4942 14.8228 96.1172 15.0838 96.7687 15.0909C97.6201 15.0909 98.1808 14.6235 98.1808 14.0378C98.1808 12.5202 94.1573 13.3966 94.1573 10.4753M107.193 8.45679V11.5241H103.786V8.45679C103.786 8.40386 103.766 8.35295 103.729 8.31499C103.692 8.27703 103.642 8.25503 103.589 8.25373H102.296C102.27 8.25385 102.244 8.25927 102.22 8.26968C102.195 8.28008 102.173 8.29525 102.155 8.31429C102.118 8.35245 102.098 8.40371 102.099 8.45679V16.2074C102.099 16.3192 102.188 16.4111 102.296 16.4111H103.589C103.642 16.41 103.692 16.388 103.729 16.3498C103.766 16.3117 103.787 16.2605 103.786 16.2074V13.0909H107.19V16.2074C107.19 16.3192 107.279 16.4111 107.388 16.4111H108.68C108.733 16.4102 108.784 16.3882 108.821 16.35C108.858 16.3118 108.878 16.2605 108.878 16.2074V8.45679C108.878 8.41726 108.866 8.37855 108.845 8.34539C108.823 8.31223 108.793 8.28607 108.756 8.27012C108.732 8.25969 108.706 8.25412 108.68 8.25373H107.388C107.335 8.25504 107.285 8.27712 107.249 8.31517C107.212 8.35321 107.192 8.40412 107.193 8.45679ZM30.3195 9.28828C29.8754 8.46799 29.217 7.7837 28.4143 7.30848C27.6117 6.83325 26.6951 6.58494 25.7623 6.59004H11.3307C11.258 6.59054 11.1863 6.60701 11.1207 6.63828C11.055 6.66956 10.9971 6.71488 10.951 6.77103C10.9048 6.82718 10.8715 6.89279 10.8536 6.96321C10.8356 7.03364 10.8333 7.10716 10.8469 7.17857C10.866 7.27379 10.9131 7.36113 10.9822 7.42937L14.1258 10.558C14.4037 10.8358 14.7813 10.9904 15.1746 10.9904H25.3484C25.5198 10.9878 25.6901 11.019 25.8494 11.0821C26.0088 11.1453 26.1542 11.2392 26.2772 11.3586C26.4003 11.478 26.4987 11.6204 26.5667 11.7778C26.6347 11.9351 26.671 12.1044 26.6736 12.2758C26.6747 12.4473 26.6419 12.6172 26.5771 12.776C26.5124 12.9348 26.4169 13.0792 26.2963 13.2011C26.1756 13.3229 26.0321 13.4198 25.874 13.4861C25.7159 13.5524 25.5462 13.5869 25.3747 13.5875H18.3616C18.2889 13.5878 18.2171 13.6041 18.1514 13.6353C18.0856 13.6664 18.0276 13.7116 17.9813 13.7677C17.935 13.8238 17.9016 13.8894 17.8834 13.9598C17.8653 14.0303 17.8629 14.1038 17.8764 14.1753C17.8952 14.2707 17.9421 14.3583 18.0111 14.4268L21.1567 17.5583C21.436 17.8354 21.813 17.9908 22.2063 17.99H25.3783C29.5058 17.99 32.6266 13.6224 30.3202 9.28614" fill="url(#paint0_linear_56_1566)"/>
</g>
<defs>
<linearGradient id="paint0_linear_56_1566" x1="59.8576" y1="6.59004" x2="59.8576" y2="17.99" gradientUnits="userSpaceOnUse">
<stop stop-color="white" stop-opacity="0.8"/>
<stop offset="1" stop-color="white" stop-opacity="0.4"/>
</linearGradient>
</defs>
</svg>
